<svg width="14" height="14" viewBox="0 0 14 14" fill="none" xmlns="http://www.w3.org/2000/svg">
<path d="M4.08329 6.41667H9.91663M4.08329 8.75H7.58329M4.08329 4.08333H8.74996M12.8333 9.91667C12.8333 10.2261 12.7104 10.5228 12.4916 10.7416C12.2728 10.9604 11.976 11.0833 11.6666 11.0833H3.98296C3.67357 11.0834 3.37687 11.2064 3.15813 11.4252L1.87363 12.7097C1.8157 12.7676 1.74191 12.807 1.66158 12.823C1.58124 12.839 1.49798 12.8308 1.42231 12.7994C1.34663 12.7681 1.28195 12.715 1.23645 12.6469C1.19093 12.5788 1.16664 12.4987 1.16663 12.4168V2.91667C1.16663 2.60725 1.28954 2.3105 1.50834 2.09171C1.72713 1.87291 2.02388 1.75 2.33329 1.75H11.6666C11.976 1.75 12.2728 1.87291 12.4916 2.09171C12.7104 2.3105 12.8333 2.60725 12.8333 2.91667V9.91667Z" stroke="#0073CF" stroke-linecap="round" stroke-linejoin="round"/>
</svg>
