<svg width="196" height="36" viewBox="0 0 196 36" fill="none" xmlns="http://www.w3.org/2000/svg">
<g clip-path="url(#clip0_33799_17290)">
<path d="M32.2031 0L11.5176 36L3.57422 22.833L16.6475 0H32.2031ZM15.8203 0L8.04199 13.333L0 0H15.8203Z" fill="#FFD900"/>
<path d="M45.1744 7.99969C46.5595 7.99969 47.7603 8.22152 48.776 8.66473C49.8099 9.08942 50.6868 9.75428 51.4069 10.6589L48.859 13.2077C48.3789 12.6168 47.8337 12.183 47.2242 11.9059C46.6333 11.6105 45.9313 11.4626 45.1188 11.4626C44.251 11.4626 43.6139 11.6292 43.2076 11.9616C42.8016 12.294 42.5983 12.8295 42.5983 13.5681C42.5983 13.9927 42.6634 14.3527 42.7926 14.6481C42.9403 14.9251 43.1524 15.1559 43.4293 15.3405C43.7248 15.5252 44.0945 15.6642 44.5377 15.7565L46.3102 16.1159C47.5844 16.3744 48.6098 16.7254 49.3854 17.1686C50.161 17.6118 50.724 18.2034 51.0748 18.9421C51.4441 19.6623 51.6285 20.5675 51.6285 21.6569C51.6285 23.0232 51.3612 24.1772 50.8258 25.1188C50.3087 26.0607 49.5417 26.7814 48.526 27.28C47.5288 27.76 46.2913 27.9997 44.8141 27.9997C43.3553 27.9997 42.0626 27.7502 40.9362 27.2516C39.8098 26.7346 38.8306 25.9684 37.9996 24.9528L40.5485 22.404C41.0839 23.0872 41.721 23.6138 42.4596 23.9831C43.2166 24.3524 44.0293 24.5377 44.8971 24.5378C45.8204 24.5378 46.5135 24.3346 46.9752 23.9284C47.4369 23.5221 47.6676 22.9119 47.6676 22.0993C47.6676 21.6563 47.5936 21.2774 47.4459 20.9636C47.2982 20.6498 47.0762 20.4011 46.7809 20.2165C46.4854 20.0134 46.0979 19.8655 45.6178 19.7731L43.8453 19.4401C42.6634 19.2185 41.6844 18.8675 40.9088 18.3874C40.1517 17.9072 39.5788 17.2891 39.191 16.5319C38.8217 15.7563 38.6373 14.8325 38.6373 13.7614C38.6374 12.5058 38.8868 11.4536 39.3854 10.6042C39.884 9.75469 40.6136 9.10795 41.5739 8.66473C42.5525 8.22164 43.7527 7.99971 45.1744 7.99969ZM172.074 7.99969C173.459 7.99973 174.659 8.22162 175.674 8.66473C176.709 9.08944 177.586 9.7541 178.306 10.6589L175.757 13.2077C175.277 12.6169 174.733 12.1829 174.124 11.9059C173.533 11.6105 172.831 11.4626 172.018 11.4626C171.15 11.4626 170.513 11.6292 170.107 11.9616C169.701 12.294 169.498 12.8294 169.498 13.5681C169.498 13.9926 169.562 14.3527 169.691 14.6481C169.839 14.9251 170.052 15.1558 170.329 15.3405C170.624 15.5251 170.993 15.6642 171.436 15.7565L173.21 16.1159C174.484 16.3744 175.508 16.7255 176.284 17.1686C177.059 17.6119 177.623 18.2034 177.974 18.9421C178.343 19.6622 178.528 20.5675 178.528 21.6569C178.528 23.0233 178.26 24.1771 177.724 25.1188C177.207 26.0607 176.441 26.7814 175.425 27.28C174.428 27.7601 173.191 27.9997 171.714 27.9997C170.255 27.9997 168.962 27.7503 167.836 27.2516C166.709 26.7346 165.73 25.9685 164.899 24.9528L167.448 22.404C167.983 23.0873 168.62 23.6137 169.359 23.9831C170.116 24.3524 170.929 24.5378 171.797 24.5378C172.72 24.5378 173.412 24.3344 173.874 23.9284C174.335 23.5221 174.567 22.9119 174.567 22.0993C174.567 21.6563 174.493 21.2774 174.345 20.9636C174.198 20.6498 173.976 20.4011 173.68 20.2165C173.385 20.0134 172.997 19.8655 172.517 19.7731L170.744 19.4401C169.562 19.2185 168.583 18.8675 167.807 18.3874C167.05 17.9073 166.478 17.2888 166.09 16.5319C165.721 15.7563 165.536 14.8325 165.536 13.7614C165.536 12.506 165.785 11.4535 166.284 10.6042C166.782 9.75473 167.512 9.10795 168.472 8.66473C169.451 8.22152 170.652 7.99969 172.074 7.99969ZM66.5221 11.7946H58.5172V16.1716H65.3033V19.6061H58.5172V24.2048H66.5221V27.6667H54.5563V8.33173H66.5221V11.7946ZM75.4098 20.0768L76.0192 24.0661H76.4625L77.0719 20.0768L80.1188 8.33173H84.108L78.5397 27.6667H73.8864L68.2076 8.33173H72.3073L75.4098 20.0768ZM98.2809 11.7946H90.276V16.1716H97.0621V19.6061H90.276V24.2048H98.2809V27.6667H86.3141V8.33173H98.2809V11.7946ZM110.714 18.6921L111.933 21.7663H112.376L112.155 18.5261V8.33173H115.867V27.6667H111.546L106.67 17.3073L105.451 14.2321H105.007L105.229 17.4733V27.6667H101.517V8.33173H105.839L110.714 18.6921ZM126.428 8.33173C127.998 8.33173 129.347 8.6551 130.473 9.30145C131.6 9.94782 132.467 10.9821 133.077 12.404C133.686 13.8259 133.991 15.6914 133.991 17.9997C133.991 20.3079 133.686 22.1735 133.077 23.5954C132.467 25.017 131.599 26.0507 130.473 26.697C129.347 27.3433 127.998 27.6667 126.428 27.6667H119.642V8.33173H126.428ZM150.744 27.6667H146.838L145.647 22.9304H139.718L138.528 27.6667H134.733L140.217 8.33173H145.259L150.744 27.6667ZM157.25 16.2546H157.693L161.016 8.33173H165.255L159.354 20.3815V27.6667H155.393V20.3815L149.493 8.33173H153.814L157.25 16.2546ZM190.863 16.9343H195.36V19.5573H190.863V24.2224H187.903V19.5573H183.406V16.9343H187.903V12.2692H190.863V16.9343ZM123.603 24.2048H126.428C127.167 24.2048 127.776 24.0657 128.256 23.7888C128.755 23.5117 129.134 23.0868 129.392 22.5143C129.651 21.9234 129.781 21.1938 129.781 20.3259V15.6725C129.781 14.7861 129.651 14.0566 129.392 13.4841C129.134 12.9117 128.755 12.4866 128.256 12.2097C127.776 11.9328 127.167 11.7946 126.428 11.7946H123.603V24.2048ZM141.824 15.2849L140.688 19.7448H144.677L143.486 15.2849L142.877 11.9333H142.433L141.824 15.2849Z" fill="#0073CF"/>
</g>
<defs>
<clipPath id="clip0_33799_17290">
<rect width="196" height="36" fill="white"/>
</clipPath>
</defs>
</svg>
